# xmcd
#
# Track frame offsets: 
#        150
#        22030
#        43537
#        65917
#        86405
#        104122
#        123331
#        155821
#
# Disc length: 2403 seconds
#
# Revision: 2
# Processed by: cddbd v1.5.2PL0 Copyright (c) Steve Scherf et al.
# Submitted via: ExactAudioCopy v0.95b4
#
DISCID=70096108
DTITLE=Mike Cuozzo, Eddie Costa, Vinnie Burke, Nick Stabulas - Mike Cu
DTITLE=ozzo With The Costa Burke Trio
DYEAR=1956
DGENRE=Jazz
TTITLE0=Fools Rush In <J. Mercer, R. Bloom>
TTITLE1=Lover Man <J. Davis, R. Ramirez, J. Sherman>
TTITLE2=Ten A.M. <V. Burke>
TTITLE3=That Old Feeling <L. Brown, S. Fain>
TTITLE4=I Cover The Waterfront <E. Heyman, J. Green>
TTITLE5=Easy To Love <C. Porter>
TTITLE6=Blue Jeans <V. Burke>
TTITLE7=Bounce For Mike <V. Burke>
EXTD=YEAR: 1956
EXTT0=
EXTT1=
EXTT2=
EXTT3=
EXTT4=
EXTT5=
EXTT6=
EXTT7=
PLAYORDER=
